# File created by Blade
# Date/Time:  Tue Sep 30 19:31:45 2014
#---------------------------------------------------------
:version 1.10
:name HOM
:units
  mass 1.0
  length 1.000000
  angle deg
:documentation
     Acclaim Skeleton File
:root
   axis xyz
   order TX TY TZ RX RY RZ
   position 0.000000 0.000000 0.000000
   orientation 0 0 0
:bonedata
   begin
      id 1
      name Spine_dum
      direction 0.000000 1.000000 0.000000
      length 3.241213
      axis 0.0 0.0 0.0 xyz
   end
   begin
      id 2
      name LeftUpLeg_dum
      direction 1.000000 0.000000 0.000000
      length 3.434019
      axis 0.0 0.0 0.0 xyz
   end
   begin
      id 3
      name RightUpLeg_dum
      direction -1.000000 0.000000 0.000000
      length 3.434019
      axis 0.0 0.0 0.0 xyz
   end
   begin
      id 4
      name Spine
      direction 0.000000 1.000000 0.000000
      length 0.000000
      axis 0.0 0.0 0.0 xyz
      dof rx ry rz
   end
   begin
      id 5
      name Spine_dum1
      direction 0.000000 1.000000 0.000000
      length 18.382958
      axis 0.0 0.0 0.0 xyz
   end
   begin
      id 6
      name Spine_dum2
      direction 0.000000 1.000000 0.000000
      length 12.828261
      axis 0.0 0.0 0.0 xyz
   end
   begin
      id 7
      name Spine_dum3
      direction 0.000000 1.000000 0.000000
      length 12.828261
      axis 0.0 0.0 0.0 xyz
   end
   begin
      id 8
      name Head
      direction 0.000000 1.000000 0.000000
      length 4.527550
      axis 0.0 0.0 0.0 xyz
      dof rx ry rz
   end
   begin
      id 9
      name LeftShoulder
      direction 1.000000 0.000000 0.000000
      length 7.748055
      axis 0.0 0.0 -90.0 xyz
      dof rx ry rz
   end
   begin
      id 10
      name LeftArm
      direction 1.000000 0.000000 0.000000
      length 10.635614
      axis 0.0 0.0 -90.0 xyz
      dof rx ry rz
   end
   begin
      id 11
      name LeftForeArm
      direction 1.000000 0.000000 0.000000
      length 8.346755
      axis 0.0 0.0 -90.0 xyz
      dof ry rz rx
   end
   begin
      id 12
      name LeftHand
      direction 0.000000 0.000000 0.000000
      length 0.000000
      axis 0.0 0.0 -90.0 xyz
      dof rx ry rz
   end
   begin
      id 13
      name LeftHand_dum1
      direction 0.000000 0.000000 0.000000
      length 0.000000
      axis 0.0 0.0 -90.0 xyz
   end
   begin
      id 14
      name LeftHand_dum2
      direction 1.000000 0.000000 0.000000
      length 3.937000
      axis 0.0 0.0 -90.0 xyz
   end
   begin
      id 15
      name LeftHandThumb1
      direction 0.000000 0.000000 1.000000
      length 3.937000
      axis 0.0 0.0 -90.0 xyz
      dof rx rz ry
   end
   begin
      id 16
      name RightShoulder
      direction -1.000000 0.000000 0.000000
      length 7.748055
      axis 0.0 0.0 90.0 xyz
      dof rx ry rz
   end
   begin
      id 17
      name RightArm
      direction -1.000000 0.000000 0.000000
      length 10.635614
      axis 0.0 0.0 90.0 xyz
      dof rx ry rz
   end
   begin
      id 18
      name RightForeArm
      direction -1.000000 0.000000 0.000000
      length 8.346755
      axis 0.0 0.0 90.0 xyz
      dof ry rz rx
   end
   begin
      id 19
      name RightHand
      direction 0.000000 0.000000 0.000000
      length 0.000000
      axis 0.0 0.0 90.0 xyz
      dof rx ry rz
   end
   begin
      id 20
      name RightHand_dum1
      direction 0.000000 0.000000 0.000000
      length 0.000000
      axis 0.0 0.0 90.0 xyz
   end
   begin
      id 21
      name RightHand_dum2
      direction -1.000000 0.000000 0.000000
      length 3.937000
      axis 0.0 0.0 90.0 xyz
   end
   begin
      id 22
      name RightHandThumb1
      direction 0.000000 0.000000 1.000000
      length 3.937000
      axis 0.0 0.0 90.0 xyz
      dof rx rz ry
   end
   begin
      id 23
      name LeftUpLeg
      direction 0.000000 -1.000000 0.000000
      length 15.713025
      axis 0.0 0.0 0.0 xyz
      dof rx ry rz
   end
   begin
      id 24
      name LeftLeg
      direction 0.000000 -1.000000 0.000000
      length 14.435119
      axis 0.0 0.0 0.0 xyz
      dof rx ry rz
   end
   begin
      id 25
      name LeftFoot
      direction 0.000000 -0.258819 0.965926
      length 4.938895
      axis 15.0 0.0 0.0 xyz
      dof rx ry rz
   end
   begin
      id 26
      name LeftToeBase
      direction 0.000000 0.000000 1.000000
      length 2.952750
      axis 0.0 0.0 0.0 xyz
      dof rx ry rz
   end
   begin
      id 27
      name RightUpLeg
      direction 0.000000 -1.000000 0.000000
      length 15.713025
      axis 0.0 0.0 0.0 xyz
      dof rx ry rz
   end
   begin
      id 28
      name RightLeg
      direction 0.000000 -1.000000 0.000000
      length 14.435119
      axis 0.0 0.0 0.0 xyz
      dof rx ry rz
   end
   begin
      id 29
      name RightFoot
      direction 0.000000 -0.258819 0.965926
      length 4.938895
      axis 15.0 0.0 0.0 xyz
      dof rx ry rz
   end
   begin
      id 30
      name RightToeBase
      direction 0.000000 0.000000 1.000000
      length 2.952750
      axis 0.0 0.0 0.0 xyz
      dof rx ry rz
   end
:hierarchy
   begin
      root Spine_dum LeftUpLeg_dum RightUpLeg_dum
      Spine_dum Spine
      LeftUpLeg_dum LeftUpLeg
      RightUpLeg_dum RightUpLeg
      Spine Spine_dum1 Spine_dum2 Spine_dum3
      Spine_dum1 Head
      Spine_dum2 LeftShoulder
      Spine_dum3 RightShoulder
      LeftShoulder LeftArm
      LeftArm LeftForeArm
      LeftForeArm LeftHand
      LeftHand LeftHand_dum1 LeftHand_dum2
      LeftHand_dum1 LeftHandThumb1
      RightShoulder RightArm
      RightArm RightForeArm
      RightForeArm RightHand
      RightHand RightHand_dum1 RightHand_dum2
      RightHand_dum1 RightHandThumb1
      LeftUpLeg LeftLeg
      LeftLeg LeftFoot
      LeftFoot LeftToeBase
      RightUpLeg RightLeg
      RightLeg RightFoot
      RightFoot RightToeBase
   end

# File created by Blade
# Date/Time:  Mon Sep 22 19:00:17 2014
# Frame Rate: 120.000 fps
#------------------------------------------------------
:FULLY-SPECIFIED
:DEGREES
1
root -1.231589 32.742112 -4.404530 41.090121 1.861400 0.897950
Spine -45.942357 -2.545714 0.191697
Head 6.594150 -0.848825 -4.770789
LeftShoulder -18.209875 40.721777 24.581527
LeftArm 44.217612 -43.345272 -49.747678
LeftForeArm 14.552494 -0.000000 -2.031559
LeftHand -25.311302 -0.000000 -2.459617
LeftHandThumb1 -26.253704 0.000000 33.147579
RightShoulder -19.555589 -42.181436 -26.488221
RightArm 46.529612 33.721892 53.724116
RightForeArm 10.019687 -0.000000 -3.471134
RightHand 6.641514 -0.000000 4.713538
RightHandThumb1 -24.326973 -0.000000 -32.862282
LeftUpLeg -37.252752 5.603357 -0.747025
LeftLeg 0.571894 -0.000000 -0.000000
LeftFoot -1.998457 0.561093 -2.626229
LeftToeBase 2.226394 -0.000000 -0.000000
RightUpLeg -36.495336 -8.989395 5.600645
RightLeg -2.699792 -0.000000 0.000000
RightFoot -6.198747 -6.445505 18.044592
RightToeBase 15.955473 -0.000000 -0.000000
2
root -1.230181 32.741990 -4.403733 41.108276 1.883715 0.904308
Spine -45.946353 -2.546183 0.175728
Head 6.561153 -0.837389 -4.781544
LeftShoulder -18.233551 40.755358 24.538961
LeftArm 44.200291 -43.272824 -49.648833
LeftForeArm 14.549009 -0.000000 -2.028621
LeftHand -25.329445 -0.000000 -2.359182
LeftHandThumb1 -26.253704 0.000000 33.147579
RightShoulder -19.573556 -42.191340 -26.486991
RightArm 46.477942 33.712484 53.652813
RightForeArm 10.026320 -0.000000 -3.358993
RightHand 6.651085 -0.000000 4.427739
RightHandThumb1 -24.326973 -0.000000 -32.862282
LeftUpLeg -37.273362 5.589144 -0.747821
LeftLeg 0.573537 -0.000000 -0.000000
LeftFoot -2.001709 0.555062 -2.634484
LeftToeBase 2.259543 -0.000000 -0.000000
RightUpLeg -36.512411 -9.001653 5.601623
RightLeg -2.695443 -0.000000 0.000000
RightFoot -6.201129 -6.440556 18.100098
RightToeBase 15.953269 -0.000000 -0.000000
3
root -1.228133 32.742068 -4.402643 41.119627 1.892010 0.904597
Spine -45.945194 -2.536578 0.162642
Head 6.533315 -0.813754 -4.794695
LeftShoulder -18.260683 40.796523 24.500446
LeftArm 44.182159 -43.179744 -49.591360
LeftForeArm 14.482156 -0.000000 -1.972275
LeftHand -25.442019 -0.000000 -2.158142
LeftHandThumb1 -26.253704 0.000000 33.147579
RightShoulder -19.572447 -42.194094 -26.483885
RightArm 46.419608 33.720832 53.581385
RightForeArm 10.011166 -0.000000 -3.264314
RightHand 6.829096 -0.000000 4.240519
RightHandThumb1 -24.326973 -0.000000 -32.862282
LeftUpLeg -37.285694 5.602532 -0.762424
LeftLeg 0.573178 -0.000000 -0.000000
LeftFoot -1.997283 0.525180 -2.636755
LeftToeBase 2.231067 -0.000000 -0.000000
RightUpLeg -36.520751 -8.996433 5.596038
RightLeg -2.694058 -0.000000 0.000000
RightFoot -6.204964 -6.458989 18.079642
RightToeBase 15.936856 -0.000000 -0.000000
4
root -1.226692 32.741994 -4.401857 41.138641 1.914905 0.905809
Spine -45.949684 -2.532905 0.152423
Head 6.505336 -0.780289 -4.793833
LeftShoulder -18.294842 40.817963 24.455045
LeftArm 44.182327 -43.091599 -49.523183
LeftForeArm 14.485425 -0.000000 -1.953718
LeftHand -25.468303 -0.000000 -2.221292
LeftHandThumb1 -26.253704 0.000000 33.147579
RightShoulder -19.601504 -42.209041 -26.457379
RightArm 46.386898 33.689952 53.496332
RightForeArm 9.972594 -0.000000 -3.162116
RightHand 6.754660 -0.000000 4.013888
RightHandThumb1 -24.326973 -0.000000 -32.862282
LeftUpLeg -37.304647 5.595857 -0.760832
LeftLeg 0.569941 -0.000000 -0.000000
LeftFoot -1.989199 0.503996 -2.622138
LeftToeBase 2.205719 -0.000000 -0.000000
RightUpLeg -36.538765 -9.007724 5.606833
RightLeg -2.692080 -0.000000 0.000000
RightFoot -6.209237 -6.460680 18.100415
RightToeBase 15.957146 -0.000000 -0.000000
